<svg xmlns="http://www.w3.org/2000/svg" viewBox="0 0 760 430" width="760" height="430" font-family="ui-sans-serif,system-ui,'Segoe UI',Helvetica,Arial,sans-serif" role="img"><style>:root{--ink:#0b0b0b;--sec:#52514e;--mut:#898781;--grid:#e1e0d9;--base:#c3c2b7;--surf:#fcfcfb;--c1:#2a78d6;--c2:#eb6834;--c3:#1baf7a}@media (prefers-color-scheme:dark){:root{--ink:#ffffff;--sec:#c3c2b7;--mut:#898781;--grid:#2c2c2a;--base:#383835;--surf:#1a1a19;--c1:#3987e5;--c2:#d95926;--c3:#199e70}}.t{fill:var(--ink)}.s{fill:var(--sec)}.m{fill:var(--mut)}.mono{font-family:ui-monospace,'SFMono-Regular',Menlo,Consolas,monospace}</style><rect width="760" height="430" fill="var(--surf)"/><text x="20" y="24" font-size="15" class="t" text-anchor="start" font-weight="600" dominant-baseline="middle">容量の壁は、解析近似より遠い</text><text x="20" y="44" font-size="12" class="s" text-anchor="start" font-weight="400" dominant-baseline="middle">学習済みの匂いと未学習の匂いをMBON入力で分離できるか（AUC）。1.0が完全分離</text><line x1="66" y1="78.0" x2="628" y2="78.0" stroke="var(--grid)" stroke-width="1"/><text x="56" y="78.0" font-size="10.5" class="m mono" text-anchor="end" font-weight="400" dominant-baseline="middle">1.0</text><line x1="66" y1="150.5" x2="628" y2="150.5" stroke="var(--grid)" stroke-width="1"/><text x="56" y="150.5" font-size="10.5" class="m mono" text-anchor="end" font-weight="400" dominant-baseline="middle">0.9</text><line x1="66" y1="222.99999999999997" x2="628" y2="222.99999999999997" stroke="var(--grid)" stroke-width="1"/><text x="56" y="222.99999999999997" font-size="10.5" class="m mono" text-anchor="end" font-weight="400" dominant-baseline="middle">0.8</text><line x1="66" y1="295.5" x2="628" y2="295.5" stroke="var(--grid)" stroke-width="1"/><text x="56" y="295.5" font-size="10.5" class="m mono" text-anchor="end" font-weight="400" dominant-baseline="middle">0.7</text><line x1="66" y1="368.0" x2="628" y2="368.0" stroke="var(--grid)" stroke-width="1"/><text x="56" y="368.0" font-size="10.5" class="m mono" text-anchor="end" font-weight="400" dominant-baseline="middle">0.6</text><text x="66.0" y="386" font-size="10.5" class="m mono" text-anchor="middle" font-weight="400" dominant-baseline="middle">1</text><text x="200.07107257622513" y="386" font-size="10.5" class="m mono" text-anchor="middle" font-weight="400" dominant-baseline="middle">3</text><text x="319.7682863447361" y="386" font-size="10.5" class="m mono" text-anchor="middle" font-weight="400" dominant-baseline="middle">8</text><text x="431.58942878157865" y="386" font-size="10.5" class="m mono" text-anchor="middle" font-weight="400" dominant-baseline="middle">20</text><text x="543.4105712184212" y="386" font-size="10.5" class="m mono" text-anchor="middle" font-weight="400" dominant-baseline="middle">50</text><text x="628.0" y="386" font-size="10.5" class="m mono" text-anchor="middle" font-weight="400" dominant-baseline="middle">100</text><text x="347.0" y="408" font-size="11.5" class="s" text-anchor="middle" font-weight="400" dominant-baseline="middle">覚えさせた匂いの数 k</text><polyline points="66.0,114.3 150.6,148.7 200.1,181.4 262.4,242.0 319.8,322.0 369.2,368.0 404.4,368.0 431.6,368.0 458.8,368.0 481.1,368.0 516.2,368.0 543.4,368.0 584.5,368.0 628.0,368.0" fill="none" stroke="var(--mut)" stroke-width="1.5" stroke-dasharray="4 4"/><text x="638" y="366.0" font-size="10.5" class="m" text-anchor="start" font-weight="400" dominant-baseline="middle">解析近似 (1-f)^k</text><polyline points="66.0,86.3 150.6,87.1 200.1,88.3 262.4,89.6 319.8,93.2 369.2,99.4 404.4,104.7 431.6,110.0 458.8,127.8 481.1,140.0 516.2,158.7 543.4,187.6 584.5,221.9 628.0,267.0" fill="none" stroke="var(--c1)" stroke-width="2" stroke-linejoin="round"/><circle cx="66.0" cy="86.3" r="4" fill="var(--c1)" stroke="var(--surf)" stroke-width="2"/><circle cx="150.6" cy="87.1" r="4" fill="var(--c1)" stroke="var(--surf)" stroke-width="2"/><circle cx="200.1" cy="88.3" r="4" fill="var(--c1)" stroke="var(--surf)" stroke-width="2"/><circle cx="262.4" cy="89.6" r="4" fill="var(--c1)" stroke="var(--surf)" stroke-width="2"/><circle cx="319.8" cy="93.2" r="4" fill="var(--c1)" stroke="var(--surf)" stroke-width="2"/><circle cx="369.2" cy="99.4" r="4" fill="var(--c1)" stroke="var(--surf)" stroke-width="2"/><circle cx="404.4" cy="104.7" r="4" fill="var(--c1)" stroke="var(--surf)" stroke-width="2"/><circle cx="431.6" cy="110.0" r="4" fill="var(--c1)" stroke="var(--surf)" stroke-width="2"/><circle cx="458.8" cy="127.8" r="4" fill="var(--c1)" stroke="var(--surf)" stroke-width="2"/><circle cx="481.1" cy="140.0" r="4" fill="var(--c1)" stroke="var(--surf)" stroke-width="2"/><circle cx="516.2" cy="158.7" r="4" fill="var(--c1)" stroke="var(--surf)" stroke-width="2"/><circle cx="543.4" cy="187.6" r="4" fill="var(--c1)" stroke="var(--surf)" stroke-width="2"/><circle cx="584.5" cy="221.9" r="4" fill="var(--c1)" stroke="var(--surf)" stroke-width="2"/><circle cx="628.0" cy="267.0" r="4" fill="var(--c1)" stroke="var(--surf)" stroke-width="2"/><text x="638" y="266.95123697916665" font-size="11" class="s" text-anchor="start" font-weight="400" dominant-baseline="middle">real  実測</text><polyline points="66.0,78.8 150.6,79.5 200.1,81.7 262.4,83.7 319.8,85.6 369.2,89.0 404.4,96.0 431.6,99.5 458.8,109.7 481.1,121.3 516.2,145.2 543.4,173.6 584.5,208.5 628.0,251.6" fill="none" stroke="var(--c2)" stroke-width="2" stroke-linejoin="round"/><circle cx="66.0" cy="78.8" r="4" fill="var(--c2)" stroke="var(--surf)" stroke-width="2"/><circle cx="150.6" cy="79.5" r="4" fill="var(--c2)" stroke="var(--surf)" stroke-width="2"/><circle cx="200.1" cy="81.7" r="4" fill="var(--c2)" stroke="var(--surf)" stroke-width="2"/><circle cx="262.4" cy="83.7" r="4" fill="var(--c2)" stroke="var(--surf)" stroke-width="2"/><circle cx="319.8" cy="85.6" r="4" fill="var(--c2)" stroke="var(--surf)" stroke-width="2"/><circle cx="369.2" cy="89.0" r="4" fill="var(--c2)" stroke="var(--surf)" stroke-width="2"/><circle cx="404.4" cy="96.0" r="4" fill="var(--c2)" stroke="var(--surf)" stroke-width="2"/><circle cx="431.6" cy="99.5" r="4" fill="var(--c2)" stroke="var(--surf)" stroke-width="2"/><circle cx="458.8" cy="109.7" r="4" fill="var(--c2)" stroke="var(--surf)" stroke-width="2"/><circle cx="481.1" cy="121.3" r="4" fill="var(--c2)" stroke="var(--surf)" stroke-width="2"/><circle cx="516.2" cy="145.2" r="4" fill="var(--c2)" stroke="var(--surf)" stroke-width="2"/><circle cx="543.4" cy="173.6" r="4" fill="var(--c2)" stroke="var(--surf)" stroke-width="2"/><circle cx="584.5" cy="208.5" r="4" fill="var(--c2)" stroke="var(--surf)" stroke-width="2"/><circle cx="628.0" cy="251.6" r="4" fill="var(--c2)" stroke="var(--surf)" stroke-width="2"/><text x="638" y="251.58085937499993" font-size="11" class="s" text-anchor="start" font-weight="400" dominant-baseline="middle">degree_swap  張替</text><polyline points="66.0,78.0 150.6,78.4 200.1,78.3 262.4,79.1 319.8,81.6 369.2,86.4 404.4,93.7 431.6,102.0 458.8,115.4 481.1,129.9 516.2,161.5 543.4,200.0 584.5,240.6 628.0,283.1" fill="none" stroke="var(--c3)" stroke-width="2" stroke-linejoin="round"/><circle cx="66.0" cy="78.0" r="4" fill="var(--c3)" stroke="var(--surf)" stroke-width="2"/><circle cx="150.6" cy="78.4" r="4" fill="var(--c3)" stroke="var(--surf)" stroke-width="2"/><circle cx="200.1" cy="78.3" r="4" fill="var(--c3)" stroke="var(--surf)" stroke-width="2"/><circle cx="262.4" cy="79.1" r="4" fill="var(--c3)" stroke="var(--surf)" stroke-width="2"/><circle cx="319.8" cy="81.6" r="4" fill="var(--c3)" stroke="var(--surf)" stroke-width="2"/><circle cx="369.2" cy="86.4" r="4" fill="var(--c3)" stroke="var(--surf)" stroke-width="2"/><circle cx="404.4" cy="93.7" r="4" fill="var(--c3)" stroke="var(--surf)" stroke-width="2"/><circle cx="431.6" cy="102.0" r="4" fill="var(--c3)" stroke="var(--surf)" stroke-width="2"/><circle cx="458.8" cy="115.4" r="4" fill="var(--c3)" stroke="var(--surf)" stroke-width="2"/><circle cx="481.1" cy="129.9" r="4" fill="var(--c3)" stroke="var(--surf)" stroke-width="2"/><circle cx="516.2" cy="161.5" r="4" fill="var(--c3)" stroke="var(--surf)" stroke-width="2"/><circle cx="543.4" cy="200.0" r="4" fill="var(--c3)" stroke="var(--surf)" stroke-width="2"/><circle cx="584.5" cy="240.6" r="4" fill="var(--c3)" stroke="var(--surf)" stroke-width="2"/><circle cx="628.0" cy="283.1" r="4" fill="var(--c3)" stroke="var(--surf)" stroke-width="2"/><text x="638" y="283.08248697916656" font-size="11" class="s" text-anchor="start" font-weight="400" dominant-baseline="middle">uniform  一様</text><line x1="66" y1="114.25000000000003" x2="628" y2="114.25000000000003" stroke="var(--base)" stroke-width="1" stroke-dasharray="2 3"/><text x="72" y="103.25000000000003" font-size="10.5" class="m" text-anchor="start" font-weight="400" dominant-baseline="middle">AUC 0.95 — 実測容量 k=20</text></svg>